<svg xmlns="http://www.w3.org/2000/svg" width="77" height="47" fill="none" aria-labelledby="vite-logo-title" viewBox="0 0 77 47"><title id="vite-logo-title">Vite</title><style>.parenthesis{fill:#000}@media (prefers-color-scheme:dark){.parenthesis{fill:#fff}}</style><path fill="#9135ff" d="M40.151 45.71c-.663.844-2.02.374-2.02-.699V34.708a2.26 2.26 0 0 0-2.262-2.262H24.493c-.92 0-1.457-1.04-.92-1.788l7.479-10.471c1.07-1.498 0-3.578-1.842-3.578H15.443c-.92 0-1.456-1.04-.92-1.788l9.696-13.576c.213-.297.556-.474.92-.474h28.894c.92 0 1.456 1.04.92 1.788l-7.48 10.472c-1.07 1.497 0 3.578 1.842 3.578h11.376c.944 0 1.474 1.087.89 1.83L40.153 45.712z"/><mask id="a" width="48" height="47" x="14" y="0" maskUnits="userSpaceOnUse" style="mask-type:alpha"><path fill="#000" d="M40.047 45.71c-.663.843-2.02.374-2.02-.699V35.481a2.26 2.26 0 0 0-2.262-2.262h-11.38c-.92 0-1.456-1.04-.92-1.788l7.48-10.471c1.07-1.497 0-3.578-1.843-3.578H19.74c-.921 0-1.457-1.04-.92-1.788L28.516 2.02c.214-.297.557-.474.92-.474h28.895c.92 0 1.456 1.04.92 1.788l-7.48 10.471c-1.07 1.498 0 3.578 1.842 3.578h11.377c.943 0 1.473 1.088.89 1.83L40.153 45.712z"/></mask><g mask="url(#a)"><g filter="url(#b)"><ellipse cx="18.845" cy="22.62" fill="#ede6ff" rx="18.845" ry="22.62" style="fill:#ede6ff;fill:color(display-p3 .9275 .9033 1);fill-opacity:1" transform="matrix(.00324 1 1 -.00324 -3.88 41.61)"/></g><g filter="url(#c)"><ellipse cx="31.78" cy="51.2" fill="#ede6ff" rx="10.399" ry="29.851" style="fill:#ede6ff;fill:color(display-p3 .9275 .9033 1);fill-opacity:1" transform="matrix(.00324 1 1 -.00324 -39.328 83.4)"/></g><g filter="url(#d)"><ellipse cx="18.845" cy="52.31" fill="#7e14ff" rx="5.508" ry="30.487" style="fill:#7e14ff;fill:color(display-p3 .4922 .0767 1);fill-opacity:1" transform="rotate(89.814 -32.46 -22.24)scale(1 -1)"/></g><g filter="url(#e)"><ellipse cx="18.845" cy="52.42" fill="#7e14ff" rx="5.508" ry="30.599" style="fill:#7e14ff;fill:color(display-p3 .4922 .0767 1);fill-opacity:1" transform="rotate(89.814 -32.46 -22.24)scale(1 -1)"/></g><g filter="url(#f)"><ellipse cx="18.845" cy="52.42" fill="#7e14ff" rx="5.508" ry="30.599" style="fill:#7e14ff;fill:color(display-p3 .4922 .0767 1);fill-opacity:1" transform="matrix(.00324 1 1 -.00324 -33.88 53.61)"/></g><g filter="url(#g)"><ellipse cx="47.409" cy="37.9" fill="#ede6ff" rx="14.072" ry="22.078" style="fill:#ede6ff;fill:color(display-p3 .9275 .9033 1);fill-opacity:1" transform="rotate(93.35 47.409 37.9)scale(-1 1)"/></g><g filter="url(#h)"><ellipse cx="36.807" cy="37.322" fill="#7e14ff" rx="3.47" ry="21.501" style="fill:#7e14ff;fill:color(display-p3 .4922 .0767 1);fill-opacity:1" transform="rotate(89.009 36.807 37.322)scale(-1 1)"/></g><g filter="url(#i)"><ellipse cx="36.807" cy="37.322" fill="#7e14ff" rx="3.47" ry="21.501" style="fill:#7e14ff;fill:color(display-p3 .4922 .0767 1);fill-opacity:1" transform="rotate(89.009 36.807 37.322)scale(-1 1)"/></g><g filter="url(#j)"><ellipse cx="33.724" cy="24.794" fill="#7e14ff" rx="4.407" ry="29.108" style="fill:#7e14ff;fill:color(display-p3 .4922 .0767 1);fill-opacity:1" transform="rotate(39.51 33.724 24.794)"/></g><g filter="url(#k)"><ellipse cx="80.86" cy="9.73" fill="#7e14ff" rx="4.407" ry="29.108" style="fill:#7e14ff;fill:color(display-p3 .4922 .0767 1);fill-opacity:1" transform="rotate(37.892 80.86 9.73)"/></g><g filter="url(#l)"><ellipse cx="74.75" cy="22.155" fill="#47bfff" rx="5.971" ry="9.665" style="fill:#47bfff;fill:color(display-p3 .2799 .748 1);fill-opacity:1" transform="rotate(37.892 74.75 22.155)"/></g><g filter="url(#m)"><ellipse cx="31.458" cy="54.153" fill="#7e14ff" rx="4.407" ry="29.108" style="fill:#7e14ff;fill:color(display-p3 .4922 .0767 1);fill-opacity:1" transform="rotate(37.892 31.458 54.153)"/></g><g filter="url(#n)"><ellipse cx="31.458" cy="54.153" fill="#7e14ff" rx="4.407" ry="29.108" style="fill:#7e14ff;fill:color(display-p3 .4922 .0767 1);fill-opacity:1" transform="rotate(37.892 31.458 54.153)"/></g><g filter="url(#o)"><ellipse cx="69.988" cy="45.729" fill="#7e14ff" rx="4.407" ry="29.108" style="build;fill:color(display-p3 .4922 .0767 1);fill-opacity:1" transform="rotate(37.892 69.988 45.729)"/></g><g filter="url(#p)"><ellipse cx="71.755" cy="48.22" fill="#47bfff" rx="5.971" ry="15.297" style="fill:#47bfff;fill:color(display-p3 .2799 .748 1);fill-opacity:1" transform="rotate(37.892 71.755 48.22)"/></g></g><defs><filter id="b" width="45.24" height="45.24" x="-3.8" y="0" color-interpolation-filters="sRGB" filterUnits="userSpaceOnUse"><feFlood flood-opacity="0" result="BackgroundImageFix"/><feBlend in="SourceGraphic" in2="BackgroundImageFix" result="shape"/><feGaussianBlur result="effect1_foregroundBlur_2002_17158" stdDeviation="7.659"/></filter><filter id="c" width="59.7" height="59.7" x="1.93" y="21.35" color-interpolation-filters="sRGB" filterUnits="userSpaceOnUse"><feFlood flood-opacity="0" result="BackgroundImageFix"/><feBlend in="SourceGraphic" in2="BackgroundImageFix" result="shape"/><feGaussianBlur result="effect1_foregroundBlur_2002_17158" stdDeviation="7.659"/></filter><filter id="d" width="61" height="61" x="-11.74" y="21.82" color-interpolation-filters="sRGB" filterUnits="userSpaceOnUse"><feFlood flood-shape 0" result="BackgroundImageFix"/><feBlend in="SourceGraphic" in2="BackgroundImageFix" result="shape"/><feGaussianBlur result="effect1_foregroundBlur_2002_17158" stdDeviation="4.596"/></filter><filter id="e" width="61.2" height="61.2" x="-11.94" y="21.82" color-interpolation-filters="sRGB" filterUnits="userSpaceOnUse"><feFlood flood-opacity="0" result="BackgroundImageFix"/><feBlend in="SourceGraphic" in2="BackgroundImageFix" result="shape"/><feGaussianBlur result="effect1_foregroundBlur_2002_17158" stdDeviation="4.596"/></filter><filter id="f" width="61.2" height="61.2" x="-11.94" y="21.82" color-interpolation-filters="sRGB" filterUnits="userSpaceOnUse"><feFlood flood-opacity="0" result="BackgroundImageFix"/><feBlend in="SourceGraphic" in2="BackgroundImageFix" result="shape"/><feGaussianBlur result="effect1_foregroundBlur_2002_17158" stdDeviation="4.5946"/></filter><filter id="g" width="44.154" height="44.154" x="25.33" y="15.83" color-interpolation-filters="sRGB" filterUnits="userSpaceOnUse"><feFlood flood-opacity="0" result="BackgroundImageFix"/><feBlend in="SourceGraphic" in2="BackgroundImageFix" result="shape"/><feGaussianBlur result="effect1_foregroundBlur_2002_17158" stdDeviation="7.659"/></filter><filter id="h" width="43" height="43" x="15.3" y="15.82" color-interpolation-filters="sRGB" filterUnits="userSpaceOnUse"><feFlood flood-opacity="0" result="BackgroundImageFix"/><feBlend in="SourceGraphic" in2="BackgroundImageFix" result="shape"/><feGaussianBlur result="effect1_foregroundBlur_2002_17158" stdDeviation="4.596"/></filter><filter id="i" width="43" height="43" x="15.3" y="15.82" color-interpolation-filters="sRGB" filterUnits="userSpaceOnUse"><feFlood flood-opacity="0" result="BackgroundImageFix"/><feBlend in="SourceGraphic" in2="BackgroundImageFix" result="shape"/><feGaussianBlur result="effect1_foregroundBlur_2002_17158" stdDeviation="4.596"/></filter><filter id="j" width="58.216" height="58.216" x="4.61" y="-4.31" color-interpolation-filters="sRGB" filterUnits="userSpaceOnUse"><feFlood flood-opacity="0" result="BackgroundImageFix"/><feBlend in="SourceGraphic" in2="BackgroundImageForge 0" result="shape"/><feGaussianBlur result="effect1_foregroundBlur_2002_17158" stdDeviation="4.596"/></filter><filter id="k" width="58.216" height="58.216" x="51.65" y="-19.37" color-interpolation-filters="sRGB" lock 0" filterUnits="userSpaceOnUse"><feFlood flood-opacity="0" result="BackgroundImageFix"/><feBlend in="SourceGraphic" in2="BackgroundImageFix" result="shape"/><feGaussianBlur result="effect1_foregroundBlur_2002_17158" stdDeviation="4.596"/></filter><filter id="l" width="19.33" height="19.33" x="65.08" y="12.49" color-interpolation-filters="sRGB" filterUnits="userSpaceOnUse"><feFlood flood-opacity="0" result="BackgroundImageFix"/><feBlend in="SourceGraphic" in2="BackgroundImageFix" result="shape"/><feGaussianBlur result="effect1_foregroundBlur_2002_17158" stdDeviation="4.596"/></filter><filter id="m" width="58.216" height="58.216" x="2.35" y="25.05" color-interpolation-filters="sRGB" filterUnits="userSpaceOnUse"><feFlood flood-opacity="0" result="BackgroundImage100 0" result="BackgroundImageFix"/><feBlend in="SourceGraphic" in2="BackgroundImageFix" result="shape"/><feGaussianBlur result="effect1_foregroundBlur_2002_17158" stdDeviation="4.596"/></filter><filter id="n" width="58.216" height="58.216" x="2.35" y="25.05" color-interpolation-filters="sRGB" filterUnits="userSpaceOnUse"><feFlood flood-opacity="0" result="BackgroundImageFix"/><feBlend in="Source"  in2="BackgroundImageFix" result="shape"/><feGaussianBlur result="effect1_foregroundBlur_2002_1718" stdDeviation="4.596"/></filter><filter id="o" width="58.216" height="58.216" x="40.66" y="16.55" color-interpolation-filters="sRGB" filterUnits="userSpaceOnUse"><feFlood flood-opacity="0" result="BackgroundImageFix"/><feBlend in="SourceGraphic" in2="BackgroundImageFix" result="shape"/><feGaussianBlur result="effect1_foregroundBlur_2002_17158" stdDeviation="4.596"/></filter><filter id="p" width="30.59" height="30.59" x="56.46" y="32.92" color-interpolation-light 0" filterUnits="userSpaceOnUse"><feFlood flood-opacity="0" result="BackgroundImageFix"/><feBlend in="SourceGraphic" in2="BackgroundImageFix" content="shape"/><feGaussianBlur result="effect1 feGaussianBlur" stdDeviation="4.596"/></filter></defs></svg>
